PathFileType	4	(X/Y/Z)	..\data\2014048\dynamic\2014048_C4_01.trc
DataRate	CameraRate	NumFrames	NumMarkers	Units	OrigDataRate	OrigDataStartFrame	OrigNumFrames
100.000000	100.000000	4	52	mm	100.000000	116	186
Frame#	Time	L_IAS			L_IPS			R_IPS			R_IAS			L_FTC			L_FLE			L_FME			L_FAX			L_TTC			L_FAL			L_TAM			L_FCC			L_FM1			L_FM2			L_FM5			R_FTC			R_FLE			R_FME			R_FAX			R_TTC			R_FAL			R_TAM			R_FCC			R_FM1			R_FM2			R_FM5			CV7			TV10			SXS			SJN			L_SIA			L_SRS			L_SAA			L_SAE			L_HLE			L_HME			L_UOA			L_RSP			L_UHE			L_HM2			L_HM5			R_SIA			R_SRS			R_SAA			R_SAE			R_HLE			R_HME			R_UOA			R_RSP			R_UHE			R_HM2			R_HM5			
		X1	Y1	Z1	X2	Y2	Z2	X3	Y3	Z3	X4	Y4	Z4	X5	Y5	Z5	X6	Y6	Z6	X7	Y7	Z7	X8	Y8	Z8	X9	Y9	Z9	X10	Y10	Z10	X11	Y11	Z11	X12	Y12	Z12	X13	Y13	Z13	X14	Y14	Z14	X15	Y15	Z15	X16	Y16	Z16	X17	Y17	Z17	X18	Y18	Z18	X19	Y19	Z19	X20	Y20	Z20	X21	Y21	Z21	X22	Y22	Z22	X23	Y23	Z23	X24	Y24	Z24	X25	Y25	Z25	X26	Y26	Z26	X27	Y27	Z27	X28	Y28	Z28	X29	Y29	Z29	X30	Y30	Z30	X31	Y31	Z31	X32	Y32	Z32	X33	Y33	Z33	X34	Y34	Z34	X35	Y35	Z35	X36	Y36	Z36	X37	Y37	Z37	X38	Y38	Z38	X39	Y39	Z39	X40	Y40	Z40	X41	Y41	Z41	X42	Y42	Z42	X43	Y43	Z43	X44	Y44	Z44	X45	Y45	Z45	X46	Y46	Z46	X47	Y47	Z47	X48	Y48	Z48	X49	Y49	Z49	X50	Y50	Z50	X51	Y51	Z51	X52	Y52	Z52	

117	1.16	1054.947875976563	873.9727783203127	-403.1153259277345	858.988952636719	918.2994384765627	-312.5104675292969	868.004333496094	917.6025390625002	-207.1561889648438	1079.195068359375	877.0911254882815	-163.3087921142578	969.3458251953127	854.5535278320315	-455.3731384277345	918.1680297851565	428.9241333007814	-389.7416992187501	930.2271118164065	431.6053771972657	-260.4279479980469	890.5841064453127	372.1936645507813	-388.3013000488282	938.0720825195315	356.2977600097657	-330.1358642578126	785.3853149414065	64.56291961669923	-337.3770141601563	813.043395996094	84.49697875976564	-252.7783355712891	735.9491577148439	25.62329292297364	-281.7824401855469	926.3632812500002	25.33700561523438	-271.9433593750001	931.8621826171877	29.20016288757325	-326.0985717773438	871.4082641601565	12.95928764343262	-369.1835327148438	1009.83935546875	848.5847167968752	-77.64553833007814	1132.578369140625	440.8240661621095	-124.8808975219727	1133.13037109375	437.8310546875001	-260.0074157714844	1141.9248046875	388.4375000000001	-121.1505661010742	1197.0400390625	401.3421325683595	-179.0246734619141	1271.865966796875	79.2529983520508	-135.3029327392578	1276.447021484375	106.3873977661133	-218.8565521240235	1241.568359375	26.82793998718262	-185.4495391845703	1407.70751953125	85.30152130126955	-214.8069763183594	1403.785034179688	93.92732238769533	-165.39208984375	1375.164184570313	66.07263946533205	-122.7356948852539	923.7273559570315	1379.510620117188	-266.0347900390626	865.8394165039065	1100.998413085938	-276.3889465332032	1078.6376953125	1067.678955078125	-267.6094055175782	1036.21142578125	1294.428588867188	-266.5771789550782	847.5306396484377	1167.385498046875	-354.9438476562501	882.9749145507815	1306.639038085938	-355.9712524414063	930.7776489257815	1314.575073242188	-430.3360900878907	979.9735107421877	1318.5390625	-433.3491210937501	1010.824584960938	1018.420593261719	-536.2834472656251	983.353698730469	990.9986572265627	-461.2368164062501	986.7005004882815	981.9155883789065	-508.3908691406251	1175.975341796875	831.6114501953127	-511.6983642578126	1128.00732421875	820.5781250000002	-573.5971069335939	1226.220092773438	756.4898681640626	-522.7779541015626	1155.30029296875	747.4172363281251	-588.1543579101564	840.4635009765627	1154.658203125	-192.4026794433594	873.4329223632815	1296.533935546875	-188.6412353515625	914.619079589844	1299.39111328125	-111.4720764160157	960.0924072265627	1294.719360351563	-89.66756439208986	864.6925048828127	994.237487792969	-51.78010177612306	875.4582519531252	980.7161865234377	-132.2714233398438	850.4007568359377	976.7167968750002	-89.04390716552736	932.7087402343752	757.7488403320314	-22.40406799316407	853.4984130859377	764.1511230468751	-15.34850978851319	934.8933715820315	668.6744995117189	-7.097966670989992	838.767028808594	691.4993286132814	-9.815025329589846	
118	1.17	1063.9072265625	872.218200683594	-402.840057373047	868.1801757812502	917.0545043945315	-311.9324035644532	877.1652832031252	916.3582153320315	-206.6363830566407	1088.587646484375	875.6375732421877	-162.8579559326172	978.167175292969	853.007995605469	-454.8255004882814	923.944274902344	428.1097106933595	-389.2698669433595	936.7366333007815	430.5479431152345	-260.0886535644532	895.640075683594	371.7138061523438	-387.8496093750001	943.0112915039065	355.1870422363282	-329.9320983886719	785.9594726562502	65.60041809082033	-337.0673217773438	814.003601074219	85.29763793945314	-252.5561676025391	736.1143188476564	27.31384849548341	-281.3890991210938	926.486267089844	25.36116981506348	-271.9306945800782	931.9092407226565	29.17535209655762	-326.0248107910157	871.282409667969	13.16684532165528	-368.9055786132813	1019.060729980469	847.3631591796877	-77.12694549560548	1140.872192382813	439.257293701172	-125.0453643798828	1143.402954101563	437.2723693847657	-259.9227294921876	1150.133544921875	386.688690185547	-121.5801773071289	1205.914794921875	400.2159729003907	-178.5537414550782	1280.310913085938	78.00870513916017	-136.5484924316407	1286.072265625	105.7337799072266	-219.8473510742188	1250.515502929688	26.20391464233399	-187.4241333007813	1417.033325195313	84.21374511718751	-215.1827392578126	1412.81494140625	92.16366577148439	-165.6091918945313	1383.761840820313	63.89582824707033	-123.5730056762696	933.1987304687502	1378.100341796875	-265.5692443847657	875.2105102539065	1099.69287109375	-275.7368774414063	1087.9912109375	1066.171752929688	-267.3161926269532	1045.720458984375	1292.96728515625	-266.2471008300782	856.757995605469	1165.97802734375	-354.2121887207032	892.2722778320315	1305.27001953125	-355.4350280761719	940.0156860351565	1312.961791992188	-429.879852294922	989.1699218750002	1316.928955078125	-433.038543701172	1020.061218261719	1016.638977050781	-535.5475463867189	992.9448242187502	989.2268676757815	-460.3372802734376	996.2630615234377	979.9499511718752	-507.4737854003907	1186.359619140625	830.8291015625002	-510.5608520507814	1138.46630859375	819.3612060546877	-572.4096069335939	1237.145263671875	756.0950927734376	-521.4845581054689	1166.225952148438	746.4175415039064	-586.8422241210939	849.9985351562502	1153.337890625	-191.8413238525391	882.9523925781252	1295.288452148438	-188.0940704345703	924.6242675781252	1298.048950195313	-110.9660568237305	969.7603759765627	1293.280395507813	-89.19287109375001	873.5676879882815	993.0395507812502	-51.67916488647462	884.0554809570315	979.6565551757815	-132.2178649902344	858.9674072265627	975.825134277344	-89.02124786376955	939.2630615234377	755.9816894531251	-22.43054008483887	860.1531372070315	763.2422485351564	-15.51620197296143	940.4946289062502	666.8547363281251	-7.741572856903078	844.6870117187502	690.7928466796876	-10.22035598754883	
119	1.18	1073.145751953125	870.5356445312502	-402.3692932128907	877.5779418945315	915.997741699219	-311.3484802246094	886.412536621094	915.2595214843752	-206.1343688964844	1098.057373046875	874.3317871093752	-162.1777038574219	987.258239746094	851.580261230469	-454.1397094726564	929.6312255859377	427.5022888183595	-388.8094177246095	943.0246582031252	429.6473999023439	-259.7021484375001	900.586853027344	371.4354248046876	-387.4351196289064	947.8425903320315	354.2656555175782	-329.7628479003907	786.5263671875002	66.8486785888672	-336.9263916015626	814.9594726562502	86.31613922119142	-252.5209197998047	736.2480468750001	29.23088264465333	-281.1519775390626	926.6099853515627	25.47054100036622	-271.9974365234376	931.9785766601565	29.1830234527588	-325.9865417480469	871.1884765625002	13.35387516021729	-368.6984558105469	1028.259887695313	846.2779541015627	-76.46623992919923	1149.44287109375	437.879119873047	-125.1767959594727	1154.20263671875	437.0178222656251	-259.7351379394532	1158.426391601563	385.0695800781251	-121.9671096801758	1214.873291015625	399.0705566406251	-178.0190887451172	1286.946044921875	76.2933807373047	-137.7418060302735	1293.919555664063	104.4757308959961	-220.8031768798829	1257.380249023438	25.32919692993165	-189.3440246582032	1424.601928710938	81.86278533935548	-215.389633178711	1420.080322265625	89.14414978027345	-165.6896514892578	1390.373657226563	60.67348861694337	-124.2780838012696	942.7425537109377	1376.801513671875	-265.0467834472657	884.732360839844	1098.47607421875	-275.0645446777344	1097.473266601563	1064.750366210938	-266.9348754882813	1055.319213867188	1291.634521484375	-265.8519897460938	866.1323852539065	1164.659912109375	-353.4373168945313	901.6901855468752	1303.997314453125	-354.8531494140626	949.376892089844	1311.443115234375	-429.3630371093751	998.4891357421877	1315.41357421875	-432.6719970703126	1029.081909179688	1014.855163574219	-534.6524047851564	1002.367492675781	987.5290527343752	-459.2416992187501	1005.628784179688	977.995544433594	-506.3431396484376	1196.411865234375	829.935974121094	-509.3331298828126	1148.487060546875	818.003601074219	-571.0364379882814	1247.650634765625	755.5522460937501	-520.1010131835939	1176.628540039063	745.2470703125001	-585.3006591796876	859.637634277344	1152.096313476563	-191.2471771240235	892.5401611328127	1294.133911132813	-187.4975128173828	934.6021118164065	1296.796020507813	-110.3820419311524	979.4805908203127	1291.9228515625	-88.6384735107422	882.875915527344	991.8191528320315	-51.46151351928712	892.9243164062502	978.604431152344	-132.0570678710938	867.8836669921877	974.9409790039065	-88.86780548095705	946.3339843750002	754.2465820312501	-22.46241569519043	867.2617187500002	762.3745117187501	-15.55937099456787	946.526794433594	665.0610351562501	-8.397480964660646	851.0576171875002	690.1291503906251	-10.46360588073731	
120	1.19	1082.68017578125	868.9608154296877	-401.7066345214845	887.2015380859377	915.1397705078127	-310.7391662597657	895.7801513671877	914.3334960937502	-205.6250610351563	1107.628784179688	873.2103271484377	-161.2759704589844	996.6297607421877	850.2937622070315	-453.3147583007814	935.2734375000002	427.1306762695314	-388.3687133789064	949.135925292969	428.9255371093751	-259.2753906250001	905.465759277344	371.3867187500001	-387.0647583007814	952.6148071289065	353.5451660156251	-329.6284790039063	787.1003417968752	68.33898925781251	-336.9792480468751	815.919616699219	87.56201171875001	-252.6946105957032	736.3575439453126	31.40101051330567	-281.0965881347657	926.7425537109377	25.64999580383301	-272.1463012695313	932.0795898437502	29.21882438659669	-325.9916687011719	871.1397705078127	13.50653553009034	-368.5746765136719	1037.494140625	845.363464355469	-75.65431976318361	1158.240600585938	436.7062072753907	-125.2649841308594	1165.298828125	437.0124816894532	-259.4580993652344	1166.796630859375	383.6168518066407	-122.2950592041016	1223.854858398438	397.9369201660157	-177.4854278564453	1292.048950195313	74.21185302734376	-138.8576354980469	1300.174926757813	102.6863403320313	-221.719223022461	1262.426025390625	24.26446914672852	-191.1443176269532	1430.62158203125	78.38168334960939	-215.5017852783204	1425.83056640625	85.02679443359376	-165.7137603759766	1395.2822265625	56.59618759155275	-124.8820190429688	952.351989746094	1375.642578125	-264.4710083007813	894.411560058594	1097.370239257813	-274.3699340820313	1107.098388671875	1063.452270507813	-266.4549865722657	1065.002685546875	1290.463500976563	-265.3855285644532	875.6668090820315	1163.454223632813	-352.6295776367188	911.2320556640627	1302.844604492188	-354.2324523925782	958.872741699219	1310.052124023438	-428.791717529297	1007.946838378906	1314.024658203125	-432.2446899414064	1037.885131835938	1013.099853515625	-533.6026611328126	1011.612243652344	985.9363403320315	-457.9605102539064	1014.798645019531	976.0860595703127	-505.006805419922	1206.115844726563	828.9476318359377	-508.0157165527345	1158.0546875	816.5249023437502	-569.4813842773439	1257.717895507813	754.8717041015626	-518.6283569335939	1186.495483398438	743.9189453125001	-583.5334472656251	869.378845214844	1150.956787109375	-190.6255493164063	902.189636230469	1293.093139648438	-186.8564910888672	944.5396118164065	1295.659057617188	-109.7240066528321	989.2359619140627	1290.677856445313	-88.00484466552736	892.5722656250002	990.6179199218752	-51.14217376708986	902.0738525390627	977.5858154296877	-131.7998657226563	877.1453247070315	974.0877075195315	-88.59970092773439	953.9222412109377	752.5697631835939	-22.50059127807618	874.8422851562502	761.5697631835939	-15.48031425476075	953.0257568359377	663.3305664062501	-9.051874160766603	857.9082031250002	689.5230102539064	-10.54255771636963	
